<?xml version="1.0" encoding="utf-8"?>
<svg viewBox="115.7725 93.2382 153.0428 16.1445" xmlns="http://www.w3.org/2000/svg">
  <g id="logo" transform="matrix(0.7768839597702026, 0, 0, 0.7768839597702026, -148.2020034790039, -176.15797424316406)">
    <g id="Grupo_14" data-name="Grupo 14" transform="translate(445.924,347.082)">
      <path style="fill:#e71a3b" id="Caminho_22" data-name="Caminho 22" d="m 718.965,357.892 a 4.559,4.559 0 0 0 3.165,-4.513 c 0,-3.136 -2.491,-5.1 -6.565,-5.1 h -8.851 v 19.929 h 9.144 c 4.426,0 7.239,-2.2 7.239,-5.451 a 4.691,4.691 0 0 0 -4.132,-4.865 z m -9.466,-7.151 h 5.774 c 2.667,0 4.191,1.143 4.191,2.989 0,1.993 -1.554,3.224 -4.4,3.224 H 709.5 Z m 6.242,15.005 H 709.5 v -6.3 h 6.33 c 2.814,0 4.513,1.055 4.513,2.989 0,1.875 -1.643,3.311 -4.601,3.311 z" transform="translate(-706.715,-348.162)"/>
      <path style="fill:#e71a3b" id="Caminho_23" data-name="Caminho 23" d="m 779.314,347.874 -8.88,20.046 h 2.989 l 2.227,-5.129 h 9.965 l 2.227,5.129 h 2.989 l -8.88,-20.046 z m -2.55,12.338 3.869,-8.968 3.869,8.968 z" transform="translate(-752.003,-347.874)"/>
      <path style="fill:#e71a3b" id="Caminho_24" data-name="Caminho 24" d="M 866.488,357.1 H 855.5 v -8.822 h -2.784 v 19.929 h 2.784 v -8.527 h 10.99 v 8.528 h 2.81 v -19.929 h -2.814 z" transform="translate(-810.483,-348.162)"/>
      <rect style="fill:#e71a3b" y="0" x="0" id="Retângulo_19" data-name="Retângulo 19" width="2.7839999" height="19.929001" transform="translate(64.344,0.117)"/>
      <path style="fill:#e71a3b" id="Caminho_25" data-name="Caminho 25" d="M 961.843,347.874 H 959.2 l -8.88,20.046 h 2.989 l 2.227,-5.129 h 9.965 l 2.227,5.129 h 2.989 z m -5.188,12.338 3.869,-8.968 3.869,8.968 z" transform="translate(-879.859,-347.874)"/>
    </g>
    <g id="Grupo_15" data-name="Grupo 15" transform="translate(339.788,346.76)">
      <path style="fill:#0033c6" id="Caminho_26" data-name="Caminho 26" d="m 420.642,347.874 -8.47,20.046 h 5.275 l 1.319,-3.429 h 8.441 l 1.348,3.429 h 5.275 l -8.44,-20.046 z m -0.235,12.4 2.579,-6.623 2.579,6.623 z" transform="translate(-391.234,-347.552)"/>
      <path style="fill:#0033c6" id="Caminho_27" data-name="Caminho 27" d="m 501.644,355.347 -2.784,-0.645 c -1.582,-0.322 -2.4,-0.821 -2.4,-1.963 0,-1.29 1.143,-2.051 2.9,-2.051 a 3.008,3.008 0 0 1 3.283,2.7 h 4.982 c -0.5,-5.363 -5.3,-6.623 -8.528,-6.623 -4.689,0 -7.913,2.52 -7.913,6.506 0,3.165 1.846,4.953 5.773,5.8 l 3.282,0.7 c 1.729,0.323 2.11,1.055 2.11,1.758 0,1.114 -1.055,1.817 -2.814,1.817 -2.344,0 -3.839,-1.143 -4.162,-2.9 h -4.983 c 0.469,4.924 4.513,7.092 9,7.092 4.982,0 8.264,-2.491 8.264,-6.477 -0.002,-3.428 -2.347,-4.923 -6.01,-5.714 z" transform="translate(-446.827,-346.76)"/>
      <path style="fill:#0033c6" id="Caminho_28" data-name="Caminho 28" d="m 562.924,347.874 -8.47,20.046 h 5.275 l 1.319,-3.429 h 8.44 l 1.348,3.429 h 5.275 l -8.441,-20.046 z m -0.234,12.4 2.579,-6.623 2.579,6.623 z" transform="translate(-492.36,-347.552)"/>
      <path style="fill:#0033c6" id="Caminho_29" data-name="Caminho 29" d="m 643.925,355.347 -2.784,-0.645 c -1.583,-0.322 -2.4,-0.821 -2.4,-1.963 0,-1.29 1.143,-2.051 2.9,-2.051 a 3.008,3.008 0 0 1 3.283,2.7 h 4.976 c -0.5,-5.363 -5.3,-6.623 -8.528,-6.623 -4.689,0 -7.913,2.52 -7.913,6.506 0,3.165 1.846,4.953 5.773,5.8 l 3.283,0.7 c 1.729,0.323 2.11,1.055 2.11,1.758 0,1.114 -1.055,1.817 -2.814,1.817 -2.344,0 -3.839,-1.143 -4.161,-2.9 h -4.982 c 0.469,4.924 4.513,7.092 9,7.092 4.982,0 8.264,-2.491 8.264,-6.477 10e-4,-3.428 -2.344,-4.923 -6.007,-5.714 z" transform="translate(-547.953,-346.76)"/>
      <path style="fill:#0033c6" id="Caminho_30" data-name="Caminho 30" d="m 355.233,358.935 a 4.757,4.757 0 0 1 -4.923,4.044 5.749,5.749 0 0 1 0,-11.488 4.757,4.757 0 0 1 4.923,4.044 l 4.971,-0.79 a 9.6,9.6 0 0 0 -9.865,-7.885 10.376,10.376 0 1 0 0,20.749 9.6,9.6 0 0 0 9.867,-7.9 l -4.9,-0.778 z" transform="translate(-339.788,-346.832)"/>
    </g>
  </g>
</svg>