<svg xmlns="http://www.w3.org/2000/svg" viewBox="0 0 640 480">
  <path fill="#229e45" d="M0 0h640v480H0z"/>
  <path fill="#f8e509" d="M320 240 29.6 480h580.8L320 240zm0 0L29.6 0h580.8L320 240z"/>
  <circle r="68.5" fill="#2b49a3" cx="320" cy="240"/>
  <path fill="#ffffef" d="M300 216.4c-19.8 0-36.7 6.7-46.2 16.2 1.1 39 20.9 71.5 48 92a155 155 0 0 0 36.4 0c27.1-20.5 47-53 48-92-9.5-9.5-26.4-16.2-46.1-16.2h-40.1z"/>
  <path fill="#ffffef" d="M320 239.3l-4.8-14.8h-15.5l12.5-9.1-4.8-14.7 12.6 9.1 12.5-9.1-4.8 14.7 12.6 9.1h-15.5zm-72.5 22.3L242.8 247h-15.5l12.5-9.1-4.8-14.8 12.5 9.2 12.6-9.2-4.8 14.8 12.5 9.1h-15.5zm143.4 0l-4.8-14.6h-15.5l12.5-9.1-4.8-14.8 12.6 9.2 12.5-9.2-4.8 14.8 12.6 9.1h-15.5zm-71.7 60.2l-4.8-14.7h-15.5l12.6-9.1-4.9-14.7 12.6 9.1 12.5-9.1-4.8 14.7 12.6 9.1h-15.5zM255 260l-4.8-14.7h-15.5l12.5-9.1-4.8-14.7 12.6 9.1 12.5-9.1-4.8 14.7 12.6 9.1h-15.5zm129.9 0l-4.8-14.7h-15.5l12.5-9.1-4.8-14.7 12.6 9.1 12.5-9.1-4.8 14.7 12.6 9.1h-15.5z"/>
</svg> 